<svg xmlns="http://www.w3.org/2000/svg" viewBox="0 0 100 100" fill="none" stroke="#111111" stroke-width="4" stroke-linecap="round" stroke-linejoin="round">
  <path d="M40,12 L60,12 L60,20 L40,20 Z"/>
  <path d="M32,20 H68 A12,12 0 0 1 80,32 V68 A12,12 0 0 1 68,80 H32 A12,12 0 0 1 20,68 V32 A12,12 0 0 1 32,20 Z"/>
  <path d="M36,80 L64,80 L64,86 L36,86 Z"/>
  <path d="M38,58 Q50,68 62,58"/>
  <path d="M34.5,46 a3.5,3.5 0 1,0 7,0 a3.5,3.5 0 1,0 -7,0 Z" fill="#111111" stroke="none"/>
  <path d="M58.5,46 a3.5,3.5 0 1,0 7,0 a3.5,3.5 0 1,0 -7,0 Z" fill="#111111" stroke="none"/>
</svg>
